<svg id="Calque_1" data-name="Calque 1" xmlns="http://www.w3.org/2000/svg" viewBox="0 0 1920 1080"><defs><style>.cls-1{fill:#f7f7f7;}.cls-1,.cls-2,.cls-4{stroke:#1d1d1b;}.cls-1,.cls-2,.cls-4,.cls-6,.cls-7{stroke-miterlimit:10;}.cls-1,.cls-2,.cls-7{stroke-width:4px;}.cls-2{fill:#4d64ad;}.cls-3{fill:#fff;}.cls-4{fill:#fa2829;}.cls-4,.cls-6{stroke-width:5px;}.cls-5{fill:#1d1d1b;opacity:0.49;}.cls-6{fill:#e8fb3f;}.cls-6,.cls-7{stroke:#000;}.cls-7{fill:#229a52;}</style></defs><title>Ben_Pokedex_Buttons</title><circle class="cls-1" cx="136.34" cy="108.1" r="65.9"/><circle class="cls-2" cx="136.34" cy="108.1" r="46.76"/><circle class="cls-3" cx="117.29" cy="89.96" r="14.31"/><circle class="cls-4" cx="276.07" cy="56.97" r="15.59"/><path class="cls-5" d="M288.9,52.87s-1.43,7.36-8,11.35c-6.36,3.89-15.61.89-15.61.89,5.31,8.86,16.29,5.95,20,2.53S290.95,60.19,288.9,52.87Z"/><path class="cls-5" d="M168,144.34C155.45,156,112,166,93,127l0-.38A50,50,0,0,0,177,90c0-.93,0-1.85-.08-2.76.7.48,1.08.76,1.08.76C185,112.88,180.54,132.72,168,144.34Z"/><circle class="cls-3" cx="271.1" cy="52.37" r="5.1"/><circle class="cls-6" cx="332.03" cy="56.97" r="15.59"/><path class="cls-5" d="M344.87,52.87s-1.43,7.36-8,11.35c-6.36,3.89-15.61.89-15.61.89,5.31,8.86,16.29,5.95,20,2.53S346.91,60.19,344.87,52.87Z"/><circle class="cls-3" cx="327.06" cy="52.37" r="5.1"/><circle class="cls-7" cx="389" cy="56.97" r="15.59"/><path class="cls-5" d="M401.84,52.87s-1.43,7.36-8,11.35c-6.36,3.89-15.61.89-15.61.89,5.31,8.86,16.29,5.95,20,2.53S403.88,60.19,401.84,52.87Z"/><circle class="cls-3" cx="384.03" cy="52.37" r="5.1"/></svg>